<mxfile host="65bd71144e">
    <diagram id="pIaEtrtLPv3HG8r1JEND" name="Page-1">
        <mxGraphModel dx="899" dy="644" grid="1" gridSize="10" guides="1" tooltips="1" connect="1" arrows="1" fold="1" page="1" pageScale="1" pageWidth="850" pageHeight="1100" math="0" shadow="0">
            <root>
                <mxCell id="0"/>
                <mxCell id="1" parent="0"/>
                <mxCell id="2" value="" style="rounded=0;whiteSpace=wrap;html=1;" parent="1" vertex="1">
                    <mxGeometry x="80" y="80" width="400" height="300" as="geometry"/>
                </mxCell>
                <mxCell id="3" value="Calulate volume of sphere" style="rounded=0;whiteSpace=wrap;html=1;" parent="1" vertex="1">
                    <mxGeometry x="80" y="80" width="400" height="40" as="geometry"/>
                </mxCell>
                <mxCell id="6" value="&lt;span style=&quot;font-size: 13px ; text-align: left&quot;&gt;Formula&lt;/span&gt;&lt;br style=&quot;font-size: 13px ; text-align: left&quot;&gt;&lt;span style=&quot;font-size: 13px ; text-align: left&quot;&gt;V = 4/3&amp;nbsp;&lt;/span&gt;&lt;span style=&quot;text-align: left ; color: rgb(189 , 193 , 198) ; font-family: &amp;#34;arial&amp;#34; , sans-serif ; font-size: 14px&quot;&gt;π r&lt;/span&gt;&lt;font color=&quot;#bdc1c6&quot; face=&quot;arial, sans-serif&quot; style=&quot;font-size: 13px ; text-align: left&quot;&gt;&lt;span style=&quot;font-size: 14px&quot;&gt;³&lt;/span&gt;&lt;/font&gt;" style="text;html=1;strokeColor=none;fillColor=none;align=center;verticalAlign=middle;whiteSpace=wrap;rounded=0;" vertex="1" parent="1">
                    <mxGeometry x="100" y="140" width="90" height="30" as="geometry"/>
                </mxCell>
                <mxCell id="10" value="Enter Dimentions&amp;nbsp;" style="text;html=1;strokeColor=none;fillColor=none;align=center;verticalAlign=middle;whiteSpace=wrap;rounded=0;" vertex="1" parent="1">
                    <mxGeometry x="100" y="170" width="110" height="30" as="geometry"/>
                </mxCell>
                <mxCell id="14" value="Radius:" style="text;html=1;strokeColor=none;fillColor=none;align=center;verticalAlign=middle;whiteSpace=wrap;rounded=0;" vertex="1" parent="1">
                    <mxGeometry x="100" y="200" width="60" height="30" as="geometry"/>
                </mxCell>
                <mxCell id="15" value="Calculate" style="text;html=1;strokeColor=none;fillColor=none;align=center;verticalAlign=middle;whiteSpace=wrap;rounded=0;" vertex="1" parent="1">
                    <mxGeometry x="100" y="220" width="60" height="30" as="geometry"/>
                </mxCell>
                <mxCell id="17" value="The volume of the sphere is :" style="text;html=1;strokeColor=none;fillColor=none;align=center;verticalAlign=middle;whiteSpace=wrap;rounded=0;" vertex="1" parent="1">
                    <mxGeometry x="100" y="250" width="160" height="30" as="geometry"/>
                </mxCell>
                <mxCell id="18" value="Actor" style="shape=umlActor;verticalLabelPosition=bottom;verticalAlign=top;html=1;outlineConnect=0;" vertex="1" parent="1">
                    <mxGeometry x="300" y="140" width="150" height="100" as="geometry"/>
                </mxCell>
            </root>
        </mxGraphModel>
    </diagram>
</mxfile>